# xmcd CD database file
#
# Track frame offsets:
#	150
#	13791
#	35198
#	55784
#	75692
#	91790
#	111847
#	133700
#	148831
#	161898
#	193730
#	202929
#	220311
#
# Disc length: 3131 seconds
#
# Revision: 0
# Processed by: cddbd v1.5PL3 Copyright (c) Steve Scherf et al.
# Submitted via: CDex 1.50beta10
#
DISCID=bd0c390d
DTITLE=Various Artist - Jazzyccino
DYEAR=1900
DGENRE=Jazz
TTITLE0=Body And Soul
TTITLE1=Rouse's Point
TTITLE2=Crazy 'Bout My Baby
TTITLE3=Take The Train
TTITLE4=Night And Day
TTITLE5=Clockwise
TTITLE6=Diggin' In
TTITLE7=Summertime
TTITLE8=Elmer's Tune
TTITLE9=Who Cares
TTITLE10=Mister Five By Five
TTITLE11=Round Midnight
TTITLE12=Solitude
EXTD=
EXTT0=
EXTT1=
EXTT2=
EXTT3=
EXTT4=
EXTT5=
EXTT6=
EXTT7=
EXTT8=
EXTT9=
EXTT10=
EXTT11=
EXTT12=
PLAYORDER=
